<svg xmlns="http://www.w3.org/2000/svg" viewBox="0 0 1070 1070">
  <rect width="1070" height="1070" rx="200" fill="#F2E7DB"/>
  <g transform="translate(34,0)"><path d="M165.427 329.683C171.977 329.009 179.934 334.224 189.104 344.183C229.143 357.324 292.149 385.19 329.704 448.975C258.001 327.191 293.178 162.58 432.157 99.5901C571.135 36.6006 701.797 153.3 702.516 289.047C703.234 424.793 499.669 553.724 443.481 555.855C387.293 557.985 365 454.227 414.254 443.985C463.508 433.743 567.11 494.292 612.356 310.023C657.602 125.753 377.281 -40.104 329.704 448.975L411.599 567.223C473.521 655.928 562.914 940.78 674.709 912.194C786.505 883.607 698.207 1014.06 550.607 912.194C419.141 821.459 263.831 425.336 189.104 344.183C155.511 333.158 138.087 332.497 165.427 329.683Z" fill="#3D4A1E"/><path d="M662.344 458.194C556.112 480.712 477.557 574.787 485.593 662.823C493.629 750.859 542.55 841.173 654.895 865.985C850.903 909.276 918.216 662.433 866.608 575.699C814.999 488.966 772.472 574.526 726.719 611.963C681.106 649.286 680.491 657.346 629.419 691.47C629.117 691.671 628.859 691.963 628.722 692.29C614.203 726.735 745.559 784.919 727.142 733.018C708.634 680.863 768.684 629.304 823.383 619.782C864.621 614.698 898.299 836.472 691.001 818.869C483.704 801.266 546.628 494.125 698.344 533.194C850.061 572.263 768.576 435.676 662.344 458.194Z" fill="#3D4A1E"/><path d="M236.833 347.133C236.188 370.695 214.419 389.279 188.211 388.64C162.002 388.002 141.278 368.383 141.923 344.821C142.568 321.258 164.337 302.674 190.545 303.313C216.754 303.951 237.478 323.57 236.833 347.133Z" fill="#3D4A1E"/><path d="M115.818 314.956C135.235 301.947 133.47 276.843 111.979 257.364C103.041 249.572 87.2573 245.298 76.0913 245.875C113.051 280.486 108.049 301.675 65.171 323.845C80.404 330.153 105.424 325.64 115.818 314.956Z" fill="#3D4A1E"/></g>
</svg>